<?xml version="1.0" standalone="no"?>
<!DOCTYPE svg PUBLIC "-//W3C//DTD SVG 20010904//EN"
 "http://www.w3.org/TR/2001/REC-SVG-20010904/DTD/svg10.dtd">
<svg version="1.0" xmlns="http://www.w3.org/2000/svg"
 width="720.000000pt" height="720.000000pt" viewBox="0 0 720.000000 720.000000"
 preserveAspectRatio="xMidYMid meet">

<g transform="translate(0.000000,720.000000) scale(0.100000,-0.100000)"
fill="#000000" stroke="none">
<path d="M1867 6504 c-4 -4 -7 -153 -7 -330 0 -298 1 -324 18 -332 9 -5 64 -8
122 -7 l105 1 0 335 0 334 -116 3 c-63 1 -118 -1 -122 -4z"/>
<path d="M3057 6503 c-9 -8 -9 -635 -1 -657 5 -14 43 -16 324 -16 355 0 330
-5 330 73 0 72 3 71 -202 73 -101 1 -193 2 -206 3 -22 1 -23 4 -20 69 l3 67
190 5 190 5 0 60 0 60 -192 3 -193 2 0 65 0 65 208 2 207 3 0 60 0 60 -316 3
c-173 1 -318 -1 -322 -5z"/>
<path d="M4615 6487 c-3 -7 -4 -156 -3 -332 l3 -320 115 0 115 0 5 110 5 110
125 6 c96 4 141 11 194 29 165 59 222 197 130 318 -62 80 -117 92 -437 92
-190 0 -249 -3 -252 -13z m443 -127 c43 -19 43 -20 40 -66 -4 -65 -31 -84
-125 -88 -39 -2 -83 -1 -97 1 -25 5 -26 8 -26 82 0 43 3 81 7 84 15 16 158 6
201 -13z"/>
<path d="M3615 5080 c-175 -23 -314 -98 -338 -185 -3 -11 -17 -47 -31 -80 -13
-33 -43 -145 -66 -249 l-42 -189 12 -101 c6 -55 20 -166 30 -246 21 -161 43
-358 60 -525 6 -60 17 -157 25 -215 8 -58 26 -197 40 -310 14 -113 28 -213 31
-222 3 -10 15 -18 26 -18 12 0 29 -7 39 -16 17 -15 18 -13 29 28 26 101 17 93
113 96 l87 3 0 -33 1 -33 14 25 c8 14 14 33 15 42 0 9 4 18 9 20 9 3 32 111
106 488 25 129 111 564 190 967 80 403 145 739 145 748 0 13 -28 15 -217 14
-120 -1 -245 -5 -278 -9z m460 -57 c-3 -21 -10 -41 -13 -45 -4 -3 -115 -8
-247 -10 l-240 -3 -47 -28 c-43 -26 -78 -74 -78 -109 0 -8 -5 -19 -12 -26 -9
-9 -8 -13 4 -17 8 -3 140 -7 294 -8 l279 -2 -2 -25 c-2 -14 -5 -35 -8 -47 l-5
-23 -292 -2 -292 -3 -14 -55 c-8 -30 -22 -91 -31 -135 l-17 -80 -91 -3 -91 -3
14 68 c44 220 52 251 109 403 37 101 120 147 320 179 28 5 144 9 259 10 l208
1 -7 -37z m-15 -95 c0 -13 -6 -45 -13 -73 l-13 -50 -280 0 c-273 0 -279 0
-276 20 10 57 52 92 137 113 22 5 131 10 243 11 l202 1 0 -22z m-66 -277 c3
-4 -75 -405 -172 -892 l-177 -884 -92 -3 c-89 -3 -93 -2 -97 20 -3 13 -8 416
-11 895 l-6 873 275 -1 c152 0 278 -4 280 -8z m-564 -1414 c1 -208 0 -380 -3
-383 -8 -8 -16 168 -23 486 -3 157 -11 456 -18 665 -11 322 -11 390 1 445 8
36 17 72 21 80 7 15 17 -594 22 -1293z m-76 1101 c3 -18 10 -224 16 -458 5
-234 15 -577 22 -763 7 -213 8 -341 2 -347 -18 -18 -37 9 -45 67 -12 88 -36
274 -64 513 -15 118 -37 305 -51 415 -14 110 -32 256 -40 325 -8 69 -19 152
-24 185 -17 102 -23 95 85 95 l94 0 5 -32z"/>
<path d="M4510 5080 c-82 -14 -203 -61 -233 -91 -16 -16 -32 -29 -36 -29 -14
0 -78 -97 -98 -150 -12 -30 -30 -102 -42 -160 -11 -58 -37 -175 -56 -260 -20
-85 -60 -263 -90 -395 -67 -299 -96 -417 -105 -430 -4 -5 -11 -28 -14 -50 -4
-22 -20 -96 -36 -165 -16 -69 -45 -197 -65 -285 -20 -88 -41 -172 -46 -187
-22 -55 14 -114 78 -129 21 -5 83 -9 139 -9 l101 0 42 70 c23 39 54 92 68 118
14 26 45 79 68 117 23 39 45 77 48 85 4 8 29 50 55 94 40 67 53 80 87 91 77
26 166 46 175 40 6 -3 10 1 10 9 0 25 -12 25 -109 0 -51 -14 -96 -23 -98 -21
-2 3 9 26 26 53 29 49 237 408 274 474 11 19 47 82 82 140 34 58 74 128 90
155 15 28 44 78 64 113 61 107 64 115 82 197 9 44 29 134 44 200 20 91 24 124
16 138 -9 13 -5 30 20 80 18 34 38 85 45 112 25 93 50 85 -263 84 -153 -1
-298 -5 -323 -9z m566 -42 c-3 -13 -6 -33 -6 -45 l0 -22 -239 -1 c-132 0 -266
-5 -298 -11 -106 -20 -171 -94 -193 -223 -21 -122 0 -184 74 -216 34 -16 69
-19 191 -20 83 -1 155 -1 162 0 24 0 52 185 30 192 -7 2 -65 3 -129 3 -78 -1
-118 2 -118 9 0 6 5 28 11 49 l10 37 219 0 c121 0 220 -3 220 -7 -1 -5 -10
-48 -20 -98 -11 -49 -27 -128 -36 -175 -8 -46 -17 -87 -20 -92 -7 -10 -552 -9
-599 2 -22 5 -53 12 -70 16 -64 14 -135 115 -135 193 0 43 26 155 46 197 42
89 109 150 209 190 92 37 137 41 434 43 l263 1 -6 -22z m-26 -98 c0 -9 -47
-99 -59 -112 -3 -4 -96 -8 -206 -8 l-200 -2 -3 26 c-4 29 -17 35 -20 9 -4 -42
-110 -308 -123 -311 -21 -4 -65 39 -73 73 -21 83 13 217 69 270 17 17 58 35
110 49 60 16 505 22 505 6z m-280 -280 c0 -15 -53 -124 -65 -133 -17 -12 -215
-6 -215 8 0 18 32 108 43 123 12 15 237 17 237 2z m-11 -122 c-12 -22 -13 -22
-17 -3 -2 10 1 21 7 23 6 2 12 11 12 20 1 16 2 16 6 0 2 -9 -1 -27 -8 -40z
m-571 -86 c76 -62 93 -65 425 -69 218 -3 297 -8 297 -16 0 -7 -44 -86 -96
-177 -53 -91 -105 -181 -116 -200 -80 -140 -215 -371 -234 -402 -13 -21 -24
-40 -24 -42 0 -3 -25 -46 -55 -97 -30 -50 -55 -93 -55 -95 0 -5 -189 -334
-200 -349 -4 -5 -21 -35 -37 -65 -17 -30 -45 -81 -64 -112 l-33 -58 -91 -1
c-49 -1 -94 0 -100 1 -5 2 -22 5 -38 8 -39 6 -73 56 -58 85 10 20 42 148 76
307 8 36 30 133 50 215 19 83 54 231 76 330 22 99 48 214 58 255 11 41 33 140
51 220 44 197 80 352 87 370 3 10 11 0 20 -27 10 -28 30 -55 61 -81z"/>
<path d="M2403 4885 c-87 -108 -213 -264 -280 -347 -68 -83 -123 -154 -123
-159 0 -4 23 -47 50 -95 28 -48 50 -88 50 -90 0 -2 32 -58 70 -125 39 -66 70
-123 70 -125 0 -3 10 -21 23 -42 13 -20 40 -66 59 -102 20 -36 69 -123 110
-195 103 -180 132 -234 127 -239 -2 -3 -35 2 -72 10 l-67 14 -83 -61 c-121
-90 -150 -118 -141 -137 4 -10 8 -37 9 -62 1 -25 7 -55 13 -68 14 -25 10 -29
-43 -34 l-30 -3 1 -75 c1 -84 32 -343 45 -377 8 -22 13 -23 144 -23 l135 0 0
-39 c0 -22 5 -43 11 -46 6 -4 8 -22 4 -44 -5 -28 -2 -41 12 -53 21 -18 293
-118 322 -118 10 0 51 14 89 30 81 34 116 37 210 14 86 -22 102 -35 102 -91
l0 -43 239 0 240 0 17 58 c10 31 22 62 27 69 4 6 38 14 75 18 37 4 92 11 122
16 47 8 62 6 95 -10 94 -44 135 -61 152 -61 10 0 87 22 172 49 140 44 155 51
156 72 2 13 -3 35 -9 49 -6 14 -10 44 -8 66 3 39 5 42 40 48 20 3 85 6 143 6
73 0 110 4 117 13 5 6 17 42 26 80 14 57 15 82 7 162 -6 52 -11 99 -11 105 0
5 -4 10 -9 10 -9 0 -21 -28 -30 -75 l-6 -30 -149 -3 c-146 -2 -150 -3 -180
-30 -17 -15 -43 -35 -56 -44 l-25 -17 62 -61 c36 -34 57 -63 50 -65 -6 -2 -39
-12 -72 -21 -33 -9 -67 -20 -75 -25 -8 -4 -47 -17 -87 -29 l-72 -20 -91 45
-92 45 -137 -20 c-75 -11 -137 -20 -137 -20 -1 0 -5 -16 -8 -35 -4 -19 -13
-50 -21 -69 l-15 -35 -225 0 c-234 0 -243 2 -208 42 17 18 17 19 0 32 -9 6
-17 20 -17 29 0 9 -4 17 -10 17 -13 2 -21 4 -40 12 -8 3 -26 8 -40 10 -14 3
-50 12 -81 21 -53 14 -59 14 -110 -5 -30 -11 -69 -27 -88 -35 -47 -22 -129 -5
-294 63 -57 23 -66 29 -53 39 9 6 16 18 16 26 0 8 18 22 41 32 58 26 59 41 6
93 l-47 45 -156 -1 c-86 -1 -161 -3 -167 -4 -12 -2 -36 168 -26 178 3 2 50 9
105 15 183 21 180 19 186 95 3 44 13 39 -134 71 -43 9 -75 21 -72 25 3 5 -2 6
-10 3 -29 -11 -16 13 25 46 33 26 43 30 51 19 8 -11 9 -10 4 4 -4 13 8 26 48
53 l54 36 73 -12 c40 -6 74 -12 75 -13 2 -4 121 -212 147 -259 65 -117 82
-145 104 -183 13 -22 37 -66 53 -97 17 -32 36 -58 43 -59 59 -5 93 5 116 32
21 26 30 29 82 29 l57 0 24 -60 c24 -64 55 -85 43 -30 -6 29 -6 30 33 30 21 0
41 2 44 5 3 3 0 36 -7 74 -8 37 -25 153 -40 257 -14 104 -35 241 -46 304 -11
63 -24 140 -29 170 -4 30 -11 66 -14 80 -4 14 -18 99 -32 190 -13 91 -33 221
-44 290 -11 69 -25 157 -30 196 -6 39 -19 93 -29 120 -143 383 -186 501 -208
564 -15 41 -31 78 -36 81 -5 4 -63 8 -128 8 l-117 2 -159 -196z m414 95 c14
-36 29 -74 33 -85 5 -11 27 -72 50 -135 22 -63 45 -124 50 -135 4 -11 16 -42
25 -70 18 -51 24 -69 44 -118 16 -41 14 -46 -16 -42 -16 2 -61 4 -101 4 l-73
1 -25 58 c-49 114 -22 102 -234 102 -134 0 -191 -4 -202 -12 -9 -7 -37 -40
-63 -73 -69 -87 -68 -86 -167 -83 -49 2 -88 4 -88 6 0 7 178 233 298 377 9 11
53 65 97 120 43 55 86 105 95 112 8 7 11 13 6 13 -6 0 -1 7 10 15 15 11 44 14
128 12 l108 -2 25 -65z m31 -857 c57 -225 152 -604 212 -843 61 -239 110 -438
110 -442 0 -4 -24 -8 -54 -8 -49 0 -54 2 -64 28 -6 15 -45 115 -87 222 -42
107 -83 209 -91 227 -7 17 -14 35 -14 40 0 4 -6 19 -13 33 -7 14 -21 48 -31
75 -20 54 -195 499 -332 842 -46 116 -84 216 -84 222 0 8 55 11 173 11 l173 0
102 -407z m-440 310 c17 -43 70 -177 117 -298 47 -121 90 -229 94 -240 5 -11
34 -83 64 -160 31 -77 120 -304 200 -505 79 -201 147 -375 151 -387 12 -37
-23 -84 -37 -50 -16 36 -282 612 -439 947 -50 106 -103 221 -136 290 -16 36
-49 105 -72 153 -22 49 -52 113 -65 143 l-24 54 52 64 c29 36 55 65 58 66 3 0
19 -35 37 -77z m-130 -145 c22 -46 52 -110 67 -143 15 -33 42 -91 60 -130 19
-38 92 -196 163 -350 72 -154 149 -320 172 -370 44 -94 148 -317 206 -443 19
-41 34 -75 34 -78 0 -2 -12 -4 -27 -4 -29 0 -28 -1 -96 120 -16 30 -59 107
-95 170 -36 63 -95 169 -132 235 -111 198 -334 595 -471 838 -71 125 -129 230
-129 232 0 3 47 5 104 5 l103 0 41 -82z m772 78 c0 -4 12 -79 90 -586 22 -140
56 -358 75 -485 19 -126 44 -288 55 -360 26 -172 27 -165 -15 -165 -40 0 -28
-31 -105 285 -182 749 -252 1035 -289 1185 -15 63 -26 118 -24 123 4 7 213 10
213 3z"/>
<path d="M2644 4913 c-28 -25 -204 -245 -204 -255 0 -4 70 -8 155 -8 123 0
155 3 155 13 0 13 -78 258 -84 264 -2 2 -12 -5 -22 -14z m58 -217 c3 -19 -4
-20 -104 -20 -60 -1 -108 3 -108 8 0 4 9 18 20 30 10 11 43 50 72 86 29 36 57
68 63 72 8 6 44 -104 57 -176z"/>
<path d="M4710 3235 c7 -9 15 -13 17 -11 7 7 -7 26 -19 26 -6 0 -6 -6 2 -15z"/>
<path d="M4740 3212 c0 -11 -100 -46 -162 -57 -21 -3 -40 -10 -43 -14 -3 -5 5
-38 17 -73 l23 -63 90 -8 c50 -5 98 -13 107 -18 25 -13 28 -12 28 11 0 11 -5
20 -10 20 -17 0 -27 40 -33 124 -3 43 -8 81 -11 84 -4 3 -6 0 -6 -6z"/>
<path d="M2531 1947 c-8 -11 -11 -76 -9 -233 l3 -219 47 -3 47 -3 3 98 3 98
28 3 27 3 0 -100 0 -101 55 0 55 0 0 230 0 230 -49 0 c-59 0 -61 -4 -61 -106
0 -71 -1 -74 -24 -74 -28 0 -36 28 -36 121 0 56 -1 59 -24 59 -13 0 -31 2 -39
5 -7 3 -19 0 -26 -8z"/>
<path d="M4269 1933 l-47 -15 -12 -74 c-14 -82 -9 -251 9 -300 19 -51 100 -75
176 -53 51 15 68 44 63 105 -3 38 -4 39 -43 39 -38 0 -40 -2 -43 -32 -3 -35
-32 -59 -58 -49 -20 8 -21 298 0 315 21 17 45 3 54 -33 8 -28 12 -31 48 -31
37 0 39 2 42 34 6 57 -14 88 -63 100 -55 14 -69 13 -126 -6z"/>
<path d="M4625 1943 c-85 -18 -100 -53 -100 -228 0 -122 3 -144 20 -174 25
-43 81 -64 143 -55 56 8 81 30 92 79 13 56 12 257 -1 310 -9 37 -17 46 -50 59
-39 16 -64 18 -104 9z m60 -228 l0 -160 -25 3 c-13 1 -28 8 -32 15 -5 6 -7 74
-6 150 3 142 9 161 48 154 13 -2 15 -28 15 -162z"/>
<path d="M2860 1774 c0 -249 17 -289 124 -288 130 0 138 16 134 264 l-3 185
-40 0 -40 0 -3 -182 c-2 -168 -4 -183 -22 -193 -10 -5 -26 -7 -34 -4 -14 5
-16 32 -16 195 l0 189 -50 0 -50 0 0 -166z"/>
<path d="M3257 1933 c-9 -16 -87 -399 -87 -429 0 -10 12 -14 39 -14 38 0 39 1
50 46 l12 45 47 -3 c47 -3 47 -3 52 -43 5 -39 6 -40 49 -43 l44 -3 -7 48 c-6
45 -48 284 -65 363 -7 35 -7 35 -68 38 -34 2 -63 -1 -66 -5z m87 -275 c-7 -10
-51 -10 -58 0 -5 8 19 130 31 162 3 8 12 -23 19 -70 7 -46 10 -88 8 -92z"/>
<path d="M3512 1718 l3 -223 35 0 35 0 5 165 c3 91 8 158 12 150 4 -8 19 -76
33 -150 37 -189 26 -171 98 -168 l62 3 0 220 0 220 -40 0 -40 0 3 -182 c1
-103 -2 -183 -7 -183 -5 0 -16 44 -26 98 -9 53 -24 135 -33 182 l-17 85 -63 3
-62 3 2 -223z"/>
<path d="M3877 1934 c-11 -11 -8 -358 3 -391 6 -17 23 -36 37 -44 35 -19 135
-16 166 4 35 23 49 116 45 292 l-3 140 -48 0 -48 0 -1 -180 c0 -197 -6 -222
-48 -195 -12 7 -16 44 -20 192 l-5 183 -35 3 c-20 2 -39 0 -43 -4z"/>
<path d="M2750 360 c0 -5 5 -10 11 -10 5 0 7 5 4 10 -3 6 -8 10 -11 10 -2 0
-4 -4 -4 -10z"/>
</g>
</svg>
